<?xml version="1.0" encoding="UTF-8" standalone="no"?>
<svg
   xmlns:dc="http://purl.org/dc/elements/1.1/"
   xmlns:cc="http://creativecommons.org/ns#"
   xmlns:rdf="http://www.w3.org/1999/02/22-rdf-syntax-ns#"
   xmlns:svg="http://www.w3.org/2000/svg"
   xmlns="http://www.w3.org/2000/svg"
   xmlns:sodipodi="http://sodipodi.sourceforge.net/DTD/sodipodi-0.dtd"
   xmlns:inkscape="http://www.inkscape.org/namespaces/inkscape"
   sodipodi:docname="hamburger.svg"
   inkscape:version="1.0.1 (0767f8302a, 2020-10-17)"
   id="svg8"
   version="1.1"
   viewBox="0 0 37.007435 28.745102"
   height="28.745102mm"
   width="37.007435mm">
  <defs
     id="defs2" />
  <sodipodi:namedview
     inkscape:window-maximized="1"
     inkscape:window-y="27"
     inkscape:window-x="0"
     inkscape:window-height="1016"
     inkscape:window-width="1920"
     showborder="true"
     showgrid="false"
     inkscape:document-rotation="0"
     inkscape:current-layer="layer1"
     inkscape:document-units="px"
     inkscape:cy="720.70807"
     inkscape:cx="-183.64792"
     inkscape:zoom="0.35355339"
     inkscape:pageshadow="2"
     inkscape:pageopacity="0.0"
     borderopacity="1.0"
     bordercolor="#666666"
     pagecolor="#ffffff"
     id="base"
     fit-margin-top="0"
     fit-margin-left="0"
     fit-margin-right="0"
     fit-margin-bottom="0" />
  <metadata
     id="metadata5">
    <rdf:RDF>
      <cc:Work
         rdf:about="">
        <dc:format>image/svg+xml</dc:format>
        <dc:type
           rdf:resource="http://purl.org/dc/dcmitype/StillImage" />
        <dc:title></dc:title>
      </cc:Work>
    </rdf:RDF>
  </metadata>
  <g
     id="layer1"
     inkscape:groupmode="layer"
     inkscape:label="Layer 1"
     transform="translate(-108.58035,-113.08573)">
    <g
       transform="matrix(0.76560674,0,0,0.75470618,76.948766,20.82733)"
       style="opacity:1;fill:#ffffff;stroke:none;stroke-width:0.494607;fill-opacity:1"
       id="g840"
       inkscape:transform-center-x="11.675519"
       inkscape:transform-center-y="1.9180491">
      <path
         id="path842"
         d="m 43.924909,124.88902 h 43.118928 z m 0,16.39848 h 43.118928 z m 0,16.39849 h 43.118928 z"
         style="color:#000000;font-style:normal;font-variant:normal;font-weight:normal;font-stretch:normal;font-size:medium;line-height:normal;font-family:sans-serif;font-variant-ligatures:normal;font-variant-position:normal;font-variant-caps:normal;font-variant-numeric:normal;font-variant-alternates:normal;font-variant-east-asian:normal;font-feature-settings:normal;font-variation-settings:normal;text-indent:0;text-align:start;text-decoration:none;text-decoration-line:none;text-decoration-style:solid;text-decoration-color:#000000;letter-spacing:normal;word-spacing:normal;text-transform:none;writing-mode:lr-tb;direction:ltr;text-orientation:mixed;dominant-baseline:auto;baseline-shift:baseline;text-anchor:start;white-space:normal;shape-padding:0;shape-margin:0;inline-size:0;clip-rule:nonzero;display:inline;overflow:visible;visibility:visible;isolation:auto;mix-blend-mode:normal;color-interpolation:sRGB;color-interpolation-filters:linearRGB;solid-color:#000000;solid-opacity:1;vector-effect:none;fill:#ffffff;fill-opacity:1;fill-rule:nonzero;stroke:none;stroke-width:2.6173;stroke-linecap:round;stroke-linejoin:round;stroke-miterlimit:4;stroke-dasharray:none;stroke-dashoffset:0;stroke-opacity:1;color-rendering:auto;image-rendering:auto;shape-rendering:auto;text-rendering:auto;enable-background:accumulate;stop-color:#000000;stop-opacity:1" />
      <path
         id="path844"
         d="m 43.925781,122.24414 a 2.6460995,2.6460995 0 0 0 -0.273437,0.0176 2.6460995,2.6460995 0 0 0 -0.134766,0.0195 2.6460995,2.6460995 0 0 0 -0.134766,0.0254 2.6460995,2.6460995 0 0 0 -0.263671,0.0742 2.6460995,2.6460995 0 0 0 -0.253907,0.0996 2.6460995,2.6460995 0 0 0 -0.242187,0.12695 2.6460995,2.6460995 0 0 0 -0.228516,0.15039 2.6460995,2.6460995 0 0 0 -0.109375,0.084 2.6460995,2.6460995 0 0 0 -0.103515,0.0898 2.6460995,2.6460995 0 0 0 -0.191407,0.19336 2.6460995,2.6460995 0 0 0 -0.386718,0.5625 2.6460995,2.6460995 0 0 0 -0.111328,0.25 2.6460995,2.6460995 0 0 0 -0.04492,0.12891 2.6460995,2.6460995 0 0 0 -0.03906,0.13086 2.6460995,2.6460995 0 0 0 -0.05859,0.26757 2.6460995,2.6460995 0 0 0 -0.0293,0.27149 2.6460995,2.6460995 0 0 0 -0.002,0.27344 2.6460995,2.6460995 0 0 0 0.0098,0.13671 2.6460995,2.6460995 0 0 0 0.04102,0.27149 2.6460995,2.6460995 0 0 0 0.03125,0.13281 2.6460995,2.6460995 0 0 0 0.189453,0.51172 2.6460995,2.6460995 0 0 0 0.06445,0.12109 2.6460995,2.6460995 0 0 0 0.146484,0.23047 2.6460995,2.6460995 0 0 0 0.167969,0.21485 2.6460995,2.6460995 0 0 0 0.191406,0.19726 2.6460995,2.6460995 0 0 0 0.208985,0.17578 2.6460995,2.6460995 0 0 0 0.226562,0.15235 2.6460995,2.6460995 0 0 0 0.119141,0.0684 2.6460995,2.6460995 0 0 0 0.248047,0.11523 2.6460995,2.6460995 0 0 0 0.388671,0.125 2.6460995,2.6460995 0 0 0 0.40625,0.0644 2.6460995,2.6460995 0 0 0 0.167969,0.008 h 43.117188 a 2.6460995,2.6460995 0 0 0 0.136719,-0.006 2.6460995,2.6460995 0 0 0 0.271484,-0.0312 2.6460995,2.6460995 0 0 0 0.398437,-0.10157 2.6460995,2.6460995 0 0 0 0.496094,-0.22656 2.6460995,2.6460995 0 0 0 0.228516,-0.15039 2.6460995,2.6460995 0 0 0 0.21289,-0.17187 2.6460995,2.6460995 0 0 0 0.191407,-0.19532 2.6460995,2.6460995 0 0 0 0.171875,-0.21289 2.6460995,2.6460995 0 0 0 0.07813,-0.11328 2.6460995,2.6460995 0 0 0 0.07031,-0.11523 2.6460995,2.6460995 0 0 0 0.177734,-0.3711 2.6460995,2.6460995 0 0 0 0.117188,-0.39257 2.6460995,2.6460995 0 0 0 0.02539,-0.13477 2.6460995,2.6460995 0 0 0 0.01758,-0.13477 2.6460995,2.6460995 0 0 0 0.01172,-0.13671 2.6460995,2.6460995 0 0 0 -0.02539,-0.54493 2.6460995,2.6460995 0 0 0 -0.05469,-0.26757 2.6460995,2.6460995 0 0 0 -0.132812,-0.38868 2.6460995,2.6460995 0 0 0 -0.191406,-0.36328 2.6460995,2.6460995 0 0 0 -0.07617,-0.11328 2.6460995,2.6460995 0 0 0 -0.08203,-0.10937 A 2.6460995,2.6460995 0 0 0 89,123.14844 a 2.6460995,2.6460995 0 0 0 -0.09375,-0.10156 2.6460995,2.6460995 0 0 0 -0.199219,-0.18555 2.6460995,2.6460995 0 0 0 -0.21875,-0.16406 2.6460995,2.6460995 0 0 0 -0.115234,-0.0742 2.6460995,2.6460995 0 0 0 -0.494141,-0.23243 2.6460995,2.6460995 0 0 0 -0.396484,-0.10546 2.6460995,2.6460995 0 0 0 -0.134766,-0.0195 2.6460995,2.6460995 0 0 0 -0.273437,-0.0215 2.6460995,2.6460995 0 0 0 -0.03125,0 z m 0,16.39844 a 2.6460995,2.6460995 0 0 0 -0.136719,0.004 2.6460995,2.6460995 0 0 0 -0.539062,0.0918 2.6460995,2.6460995 0 0 0 -0.130859,0.041 2.6460995,2.6460995 0 0 0 -0.253907,0.0996 2.6460995,2.6460995 0 0 0 -0.242187,0.12695 2.6460995,2.6460995 0 0 0 -0.337891,0.23437 2.6460995,2.6460995 0 0 0 -0.103515,0.0899 2.6460995,2.6460995 0 0 0 -0.09766,0.0937 2.6460995,2.6460995 0 0 0 -0.09375,0.0996 2.6460995,2.6460995 0 0 0 -0.320312,0.44336 2.6460995,2.6460995 0 0 0 -0.222656,0.49804 2.6460995,2.6460995 0 0 0 -0.09766,0.39844 2.6460995,2.6460995 0 0 0 -0.01758,0.13672 2.6460995,2.6460995 0 0 0 -0.01172,0.13477 2.6460995,2.6460995 0 0 0 -0.0039,0.13671 2.6460995,2.6460995 0 0 0 0.002,0.13672 2.6460995,2.6460995 0 0 0 0.0098,0.13672 2.6460995,2.6460995 0 0 0 0.154297,0.66406 2.6460995,2.6460995 0 0 0 0.05078,0.12696 2.6460995,2.6460995 0 0 0 0.191406,0.36328 2.6460995,2.6460995 0 0 0 0.07617,0.11328 2.6460995,2.6460995 0 0 0 0.08203,0.10938 2.6460995,2.6460995 0 0 0 0.277344,0.30273 2.6460995,2.6460995 0 0 0 0.208985,0.17578 2.6460995,2.6460995 0 0 0 0.111328,0.0801 2.6460995,2.6460995 0 0 0 0.740234,0.34765 2.6460995,2.6460995 0 0 0 0.537109,0.0977 2.6460995,2.6460995 0 0 0 0.167969,0.008 h 43.117188 a 2.6460995,2.6460995 0 0 0 0.136719,-0.006 2.6460995,2.6460995 0 0 0 0.40625,-0.0586 2.6460995,2.6460995 0 0 0 0.392578,-0.12109 2.6460995,2.6460995 0 0 0 0.125,-0.0527 2.6460995,2.6460995 0 0 0 0.123046,-0.0605 2.6460995,2.6460995 0 0 0 0.119141,-0.0664 2.6460995,2.6460995 0 0 0 0.117188,-0.0723 2.6460995,2.6460995 0 0 0 0.111328,-0.0781 2.6460995,2.6460995 0 0 0 0.109375,-0.084 2.6460995,2.6460995 0 0 0 0.103515,-0.0879 2.6460995,2.6460995 0 0 0 0.28125,-0.29882 2.6460995,2.6460995 0 0 0 0.230469,-0.33789 2.6460995,2.6460995 0 0 0 0.06641,-0.1211 2.6460995,2.6460995 0 0 0 0.05859,-0.12305 2.6460995,2.6460995 0 0 0 0.05273,-0.12695 2.6460995,2.6460995 0 0 0 0.08398,-0.25976 2.6460995,2.6460995 0 0 0 0.0332,-0.13282 2.6460995,2.6460995 0 0 0 0.05469,-0.40625 2.6460995,2.6460995 0 0 0 0.002,-0.27343 2.6460995,2.6460995 0 0 0 -0.0098,-0.13672 2.6460995,2.6460995 0 0 0 -0.01758,-0.13477 2.6460995,2.6460995 0 0 0 -0.244141,-0.78125 2.6460995,2.6460995 0 0 0 -0.13484,-0.2385 A 2.6460995,2.6460995 0 0 0 89,139.54688 a 2.6460995,2.6460995 0 0 0 -0.09375,-0.10157 2.6460995,2.6460995 0 0 0 -0.199219,-0.18554 2.6460995,2.6460995 0 0 0 -0.107422,-0.084 2.6460995,2.6460995 0 0 0 -0.111328,-0.0801 2.6460995,2.6460995 0 0 0 -0.234375,-0.14258 2.6460995,2.6460995 0 0 0 -0.121094,-0.0605 2.6460995,2.6460995 0 0 0 -0.253906,-0.10352 2.6460995,2.6460995 0 0 0 -0.804687,-0.14648 2.6460995,2.6460995 0 0 0 -0.03125,0 z m 0,16.39844 a 2.6460995,2.6460995 0 0 0 -0.675781,0.0957 2.6460995,2.6460995 0 0 0 -0.259766,0.0879 2.6460995,2.6460995 0 0 0 -0.125,0.0527 2.6460995,2.6460995 0 0 0 -0.123046,0.0605 2.6460995,2.6460995 0 0 0 -0.236329,0.13867 2.6460995,2.6460995 0 0 0 -0.111328,0.0781 2.6460995,2.6460995 0 0 0 -0.21289,0.17383 2.6460995,2.6460995 0 0 0 -0.09766,0.0937 2.6460995,2.6460995 0 0 0 -0.183593,0.20507 2.6460995,2.6460995 0 0 0 -0.230469,0.33789 2.6460995,2.6460995 0 0 0 -0.06641,0.11915 2.6460995,2.6460995 0 0 0 -0.05859,0.125 2.6460995,2.6460995 0 0 0 -0.136719,0.38476 2.6460995,2.6460995 0 0 0 -0.0625,1.08594 2.6460995,2.6460995 0 0 0 0.05469,0.26758 2.6460995,2.6460995 0 0 0 0.03711,0.13086 2.6460995,2.6460995 0 0 0 0.0957,0.25586 2.6460995,2.6460995 0 0 0 0.05664,0.125 2.6460995,2.6460995 0 0 0 0.134765,0.23828 2.6460995,2.6460995 0 0 0 0.158203,0.22265 2.6460995,2.6460995 0 0 0 0.08594,0.10547 2.6460995,2.6460995 0 0 0 0.09375,0.10156 2.6460995,2.6460995 0 0 0 0.199219,0.18555 2.6460995,2.6460995 0 0 0 0.21875,0.16602 2.6460995,2.6460995 0 0 0 0.115234,0.0723 2.6460995,2.6460995 0 0 0 0.494141,0.23242 2.6460995,2.6460995 0 0 0 0.53125,0.12696 2.6460995,2.6460995 0 0 0 0.304687,0.0215 h 43.117188 a 2.6460995,2.6460995 0 0 0 0.136719,-0.006 2.6460995,2.6460995 0 0 0 0.271484,-0.0312 2.6460995,2.6460995 0 0 0 0.134766,-0.0273 2.6460995,2.6460995 0 0 0 0.517578,-0.17383 2.6460995,2.6460995 0 0 0 0.242187,-0.12695 2.6460995,2.6460995 0 0 0 0.117188,-0.0723 2.6460995,2.6460995 0 0 0 0.111328,-0.0781 2.6460995,2.6460995 0 0 0 0.404297,-0.36719 2.6460995,2.6460995 0 0 0 0.08984,-0.10352 2.6460995,2.6460995 0 0 0 0.160157,-0.22265 2.6460995,2.6460995 0 0 0 0.195312,-0.35938 2.6460995,2.6460995 0 0 0 0.136719,-0.38672 2.6460995,2.6460995 0 0 0 0.08008,-0.94922 2.6460995,2.6460995 0 0 0 -0.01758,-0.13476 2.6460995,2.6460995 0 0 0 -0.02344,-0.13477 2.6460995,2.6460995 0 0 0 -0.03125,-0.13281 2.6460995,2.6460995 0 0 0 -0.03711,-0.13281 2.6460995,2.6460995 0 0 0 -0.0957,-0.25586 2.6460995,2.6460995 0 0 0 -0.121094,-0.24414 2.6460995,2.6460995 0 0 0 -0.07031,-0.11914 2.6460995,2.6460995 0 0 0 -0.07617,-0.11328 2.6460995,2.6460995 0 0 0 -0.261719,-0.31446 2.6460995,2.6460995 0 0 0 -0.09766,-0.0976 2.6460995,2.6460995 0 0 0 -0.802735,-0.51172 2.6460995,2.6460995 0 0 0 -0.126953,-0.0488 2.6460995,2.6460995 0 0 0 -0.130859,-0.041 2.6460995,2.6460995 0 0 0 -0.130859,-0.0351 2.6460995,2.6460995 0 0 0 -0.134766,-0.0274 2.6460995,2.6460995 0 0 0 -0.271484,-0.0371 2.6460995,2.6460995 0 0 0 -0.167969,-0.006 z"
         style="color:#000000;font-style:normal;font-variant:normal;font-weight:normal;font-stretch:normal;font-size:medium;line-height:normal;font-family:sans-serif;font-variant-ligatures:normal;font-variant-position:normal;font-variant-caps:normal;font-variant-numeric:normal;font-variant-alternates:normal;font-variant-east-asian:normal;font-feature-settings:normal;font-variation-settings:normal;text-indent:0;text-align:start;text-decoration:none;text-decoration-line:none;text-decoration-style:solid;text-decoration-color:#000000;letter-spacing:normal;word-spacing:normal;text-transform:none;writing-mode:lr-tb;direction:ltr;text-orientation:mixed;dominant-baseline:auto;baseline-shift:baseline;text-anchor:start;white-space:normal;shape-padding:0;shape-margin:0;inline-size:0;clip-rule:nonzero;display:inline;overflow:visible;visibility:visible;isolation:auto;mix-blend-mode:normal;color-interpolation:sRGB;color-interpolation-filters:linearRGB;solid-color:#000000;solid-opacity:1;vector-effect:none;fill:#ffffff;fill-opacity:1;fill-rule:nonzero;stroke:none;stroke-width:2.6173;stroke-linecap:round;stroke-linejoin:round;stroke-miterlimit:4;stroke-dasharray:none;stroke-dashoffset:0;stroke-opacity:1;color-rendering:auto;image-rendering:auto;shape-rendering:auto;text-rendering:auto;enable-background:accumulate;stop-color:#000000;stop-opacity:1" />
    </g>
  </g>
</svg>
