<?xml version="1.0" encoding="UTF-8" standalone="no"?>
<svg
   xmlns:dc="http://purl.org/dc/elements/1.1/"
   xmlns:cc="http://creativecommons.org/ns#"
   xmlns:rdf="http://www.w3.org/1999/02/22-rdf-syntax-ns#"
   xmlns:svg="http://www.w3.org/2000/svg"
   xmlns="http://www.w3.org/2000/svg"
   xmlns:sodipodi="http://sodipodi.sourceforge.net/DTD/sodipodi-0.dtd"
   xmlns:inkscape="http://www.inkscape.org/namespaces/inkscape"
   width="210.45169mm"
   height="45.676113mm"
   viewBox="0 0 210.45169 45.676113"
   version="1.1"
   id="svg8"
   inkscape:version="1.0.1 (0767f8302a, 2020-10-17)"
   sodipodi:docname="logo2.svg">
  <defs
     id="defs2" />
  <sodipodi:namedview
     id="base"
     pagecolor="#ffffff"
     bordercolor="#666666"
     borderopacity="1.0"
     inkscape:pageopacity="0.0"
     inkscape:pageshadow="2"
     inkscape:zoom="0.7071068"
     inkscape:cx="365.32041"
     inkscape:cy="247.88848"
     inkscape:document-units="px"
     inkscape:current-layer="layer1"
     inkscape:document-rotation="0"
     showgrid="false"
     showborder="true"
     inkscape:object-paths="false"
     inkscape:window-width="1920"
     inkscape:window-height="1016"
     inkscape:window-x="0"
     inkscape:window-y="27"
     inkscape:window-maximized="1"
     inkscape:snap-text-baseline="false"
     fit-margin-top="0"
     fit-margin-left="0"
     fit-margin-right="0"
     fit-margin-bottom="0" />
  <metadata
     id="metadata5">
    <rdf:RDF>
      <cc:Work
         rdf:about="">
        <dc:format>image/svg+xml</dc:format>
        <dc:type
           rdf:resource="http://purl.org/dc/dcmitype/StillImage" />
        <dc:title />
      </cc:Work>
    </rdf:RDF>
  </metadata>
  <g
     inkscape:label="Layer 1"
     inkscape:groupmode="layer"
     id="layer1"
     transform="translate(663.02042,134.71844)">
    <text
       xml:space="preserve"
       style="font-style:normal;font-weight:normal;font-size:10.5833px;line-height:1.25;font-family:sans-serif;fill:#000000;fill-opacity:1;stroke:none;stroke-width:0.264583"
       x="-245.48332"
       y="167.78003"
       id="text950"><tspan
         sodipodi:role="line"
         id="tspan948"
         x="-245.48332"
         y="167.78003"
         style="stroke-width:0.264583" /></text>
    <g
       id="g915"
       style="fill:#1a1f2c;fill-opacity:1">
      <path
         id="path937"
         style="color:#000000;font-style:normal;font-variant:normal;font-weight:normal;font-stretch:normal;font-size:medium;line-height:normal;font-family:sans-serif;font-variant-ligatures:normal;font-variant-position:normal;font-variant-caps:normal;font-variant-numeric:normal;font-variant-alternates:normal;font-variant-east-asian:normal;font-feature-settings:normal;font-variation-settings:normal;text-indent:0;text-align:start;text-decoration:none;text-decoration-line:none;text-decoration-style:solid;text-decoration-color:#000000;letter-spacing:normal;word-spacing:normal;text-transform:none;writing-mode:lr-tb;direction:ltr;text-orientation:mixed;dominant-baseline:auto;baseline-shift:baseline;text-anchor:start;white-space:normal;shape-padding:0;shape-margin:0;inline-size:0;clip-rule:nonzero;display:inline;overflow:visible;visibility:visible;isolation:auto;mix-blend-mode:normal;color-interpolation:sRGB;color-interpolation-filters:linearRGB;solid-color:#000000;solid-opacity:1;vector-effect:none;fill:#1a1f2c;fill-opacity:1;fill-rule:nonzero;stroke:none;stroke-width:4.49792;stroke-linecap:butt;stroke-linejoin:round;stroke-miterlimit:4;stroke-dasharray:none;stroke-dashoffset:0;stroke-opacity:1;color-rendering:auto;image-rendering:auto;shape-rendering:auto;text-rendering:auto;enable-background:accumulate;stop-color:#000000"
         d="m -557.79831,-131.0632 c -25.10639,0 -48.35611,3.87351 -67.43982,10.52649 l 1.91307,4.10311 c 18.44178,-6.35538 41.07781,-10.13168 65.52675,-10.13168 24.4433,0 47.07438,3.77482 65.51383,10.12754 l 1.83865,-4.12998 c -19.06718,-6.63423 -42.28465,-10.49548 -67.35248,-10.49548 z" />
      <path
         id="path856"
         style="color:#000000;font-style:normal;font-variant:normal;font-weight:normal;font-stretch:normal;font-size:medium;line-height:normal;font-family:sans-serif;font-variant-ligatures:normal;font-variant-position:normal;font-variant-caps:normal;font-variant-numeric:normal;font-variant-alternates:normal;font-variant-east-asian:normal;font-feature-settings:normal;font-variation-settings:normal;text-indent:0;text-align:start;text-decoration:none;text-decoration-line:none;text-decoration-style:solid;text-decoration-color:#000000;letter-spacing:normal;word-spacing:normal;text-transform:none;writing-mode:lr-tb;direction:ltr;text-orientation:mixed;dominant-baseline:auto;baseline-shift:baseline;text-anchor:start;white-space:normal;shape-padding:0;shape-margin:0;inline-size:0;clip-rule:nonzero;display:inline;overflow:visible;visibility:visible;isolation:auto;mix-blend-mode:normal;color-interpolation:sRGB;color-interpolation-filters:linearRGB;solid-color:#000000;solid-opacity:1;vector-effect:none;fill:#1a1f2c;fill-opacity:1;fill-rule:nonzero;stroke:none;stroke-width:1.58565;stroke-linecap:butt;stroke-linejoin:round;stroke-miterlimit:4;stroke-dasharray:none;stroke-dashoffset:0;stroke-opacity:1;color-rendering:auto;image-rendering:auto;shape-rendering:auto;text-rendering:auto;enable-background:accumulate;stop-color:#000000"
         d="m -632.093,-134.71311 c -0.8857,-0.0368 -1.73832,0.11581 -2.53421,0.48834 a 0.80344602,0.78249737 0.43461654 0 0 0,5.3e-4 v 5.3e-4 c -0.007,0.004 -0.0143,0.007 -0.0217,0.0104 l -5.34439,2.50114 a 0.80344602,0.78249737 0.43461654 0 0 -0.004,0.002 c -0.004,0.002 -0.008,0.004 -0.0119,0.006 -0.007,0.003 -0.013,0.006 -0.0196,0.009 a 0.80344602,0.78249737 0.43461654 0 0 0,10e-4 c -0.74909,0.35467 -1.37187,0.87013 -1.87791,1.51412 -0.84026,-0.0177 -1.64978,0.1362 -2.4076,0.49093 a 0.80344602,0.78249737 0.43461654 0 0 0,0.001 c -0.007,0.003 -0.0145,0.007 -0.0217,0.0103 l -5.34437,2.50114 a 0.80344602,0.78249737 0.43461654 0 0 -0.004,0.002 c -0.004,0.002 -0.008,0.004 -0.0119,0.006 -0.007,0.003 -0.013,0.006 -0.0196,0.009 a 0.80344602,0.78249737 0.43461654 0 0 0,10e-4 c -0.74909,0.35466 -1.37136,0.87063 -1.8774,1.51463 -0.84029,-0.0177 -1.65026,0.13619 -2.40813,0.49093 a 0.80344602,0.78249737 0.43461654 0 0 0,5.3e-4 l -0.005,0.001 c -0.007,0.003 -0.0145,0.007 -0.0217,0.0103 l -5.34437,2.50166 a 0.80344602,0.78249737 0.43461654 0 0 -0.004,0.002 c -0.004,0.002 -0.008,0.003 -0.0119,0.005 a 0.80344602,0.78249737 0.43461654 0 0 0,5.3e-4 c -0.007,0.003 -0.013,0.006 -0.0196,0.009 a 0.80344602,0.78249737 0.43461654 0 0 0,5.3e-4 c -2.53746,1.20147 -3.63218,4.2402 -3.61217,7.91373 0.0198,3.67353 1.14406,8.12418 3.34552,12.58269 2.2048,4.465278 5.07773,8.102997 8.01606,10.411772 2.9383,2.308786 6.06451,3.369173 8.61136,2.177127 0.007,-0.0029 0.0135,-0.0069 0.0201,-0.0098 l 5.3485,-2.503207 a 0.80344602,0.78249737 0.43461654 0 0 0.004,-0.0021 c 0.004,-0.0021 0.008,-0.0036 0.0124,-0.0057 a 0.80344602,0.78249737 0.43461654 0 0 0.003,-0.0011 c 0.004,-0.0021 0.008,-0.0039 0.0119,-0.0062 0,0 0,-5.29e-4 0,-5.29e-4 a 0.80344602,0.78249737 0.43461654 0 0 0.0156,-0.0078 c 0.74451,-0.354153 1.36356,-0.868421 1.86759,-1.509467 0.84082,0.01794 1.65084,-0.135998 2.40916,-0.490926 0.007,-0.0029 0.0132,-0.0063 0.0201,-0.0093 l 5.3485,-2.503207 a 0.80344602,0.78249737 0.43461654 0 0 0.004,-0.0021 c 0.004,-0.0019 0.008,-0.0038 0.0124,-0.0057 a 0.80344602,0.78249737 0.43461654 0 0 0.003,-0.0011 c 0.004,-0.0019 0.008,-0.0042 0.0124,-0.0062 0,0 0,-5.3e-4 0,-5.3e-4 a 0.80344602,0.78249737 0.43461654 0 0 0.0156,-0.0078 c 0.74454,-0.354153 1.36359,-0.868426 1.86759,-1.509469 0.84085,0.01794 1.65084,-0.135477 2.40916,-0.490408 0.007,-0.0032 0.0135,-0.0066 0.0201,-0.0098 l 5.348,-2.503206 a 0.80344602,0.78249737 0.43461654 0 0 0.004,-0.002 c 0.004,-0.002 0.008,-0.004 0.0119,-0.006 a 0.80344602,0.78249737 0.43461654 0 0 0.003,-0.001 c 0.004,-0.002 0.008,-0.004 0.0124,-0.006 0,0 0,-5.2e-4 0,-5.2e-4 a 0.80344602,0.78249737 0.43461654 0 0 0.0156,-0.008 c 2.52616,-1.20153 3.62069,-4.23037 3.60392,-7.89254 -0.0169,-3.67621 -1.1407,-8.13289 -3.34553,-12.5982 -2.20485,-4.46533 -5.0777,-8.10297 -8.01605,-10.41176 -2.02012,-1.5873 -4.12914,-2.58462 -6.07767,-2.66548 z m 148.58886,0 c -1.94852,0.0809 -4.05755,1.07818 -6.07766,2.66547 -2.93835,2.30879 -5.81121,5.94644 -8.01605,10.41177 -2.20482,4.46531 -3.32873,8.92199 -3.34553,12.5982 -0.0168,3.66217 1.07827,6.69101 3.60443,7.89254 a 0.78249737,0.80344602 89.565383 0 0 0.0155,0.008 c 0,0 5.3e-4,5.3e-4 5.3e-4,5.3e-4 0.004,0.002 0.008,0.004 0.0119,0.006 a 0.78249737,0.80344602 89.565383 0 0 0.002,0.001 c 0.004,0.002 0.008,0.004 0.0119,0.006 a 0.78249737,0.80344602 89.565383 0 0 0.004,0.002 l 5.34799,2.503205 c 0.007,0.0032 0.0132,0.0066 0.0202,0.0098 0.75831,0.354931 1.56833,0.508339 2.40916,0.490408 0.50402,0.641043 1.12358,1.155317 1.8681,1.509469 a 0.78249737,0.80344602 89.565383 0 0 0.015,0.0078 c 2.6e-4,1.32e-4 5.2e-4,2.64e-4 0.001,5.29e-4 0.004,0.0021 0.008,0.0043 0.0119,0.0062 a 0.78249737,0.80344602 89.565383 0 0 0.002,0.0011 c 0.004,0.0019 0.008,0.0038 0.0119,0.0057 a 0.78249737,0.80344602 89.565383 0 0 0.004,0.0021 l 5.34799,2.503207 c 0.007,0.003 0.0137,0.0064 0.0207,0.0093 0.75831,0.354928 1.56782,0.508855 2.40863,0.490926 0.50403,0.641046 1.1236,1.155314 1.86811,1.509467 a 0.78249737,0.80344602 89.565383 0 0 0.015,0.0078 c 2.7e-4,1.43e-4 5.3e-4,2.65e-4 10e-4,5.29e-4 0.004,0.0024 0.008,0.004 0.0119,0.0062 a 0.78249737,0.80344602 89.565383 0 0 0.002,0.0011 c 0.004,0.0021 0.008,0.0035 0.0119,0.0057 a 0.78249737,0.80344602 89.565383 0 0 0.004,0.0021 l 5.34799,2.503207 c 0.007,0.0029 0.0131,0.0069 0.0202,0.0098 2.54685,1.192046 5.67357,0.131659 8.61188,-2.177126 2.93832,-2.308776 5.81125,-5.946495 8.01605,-10.411771 2.20147,-4.45851 3.32563,-8.90916 3.34553,-12.58269 0.02,-3.67353 -1.07471,-6.71226 -3.61218,-7.91373 a 0.78249737,0.80344602 89.565383 0 0 -10e-4,-5.3e-4 c -0.007,-0.003 -0.0131,-0.006 -0.0202,-0.009 a 0.78249737,0.80344602 89.565383 0 1 0,-5.3e-4 c -0.004,-0.002 -0.008,-0.003 -0.0124,-0.005 a 0.78249737,0.80344602 89.565383 0 0 -0.004,-0.002 l -5.34438,-2.50166 c -0.007,-0.003 -0.0147,-0.007 -0.0217,-0.0103 l -0.005,-0.001 a 0.78249737,0.80344602 89.565383 0 0 -10e-4,-5.3e-4 c -0.75787,-0.35474 -1.56731,-0.50863 -2.4076,-0.49093 -0.50605,-0.644 -1.12833,-1.15997 -1.87741,-1.51463 a 0.78249737,0.80344602 89.565383 0 0 -0.001,-10e-4 c -0.007,-0.003 -0.0131,-0.006 -0.0202,-0.009 -0.004,-0.002 -0.008,-0.004 -0.0124,-0.006 a 0.78249737,0.80344602 89.565383 0 0 -0.004,-0.002 l -5.34438,-2.50114 c -0.007,-0.003 -0.0147,-0.007 -0.0217,-0.0103 a 0.78249737,0.80344602 89.565383 0 0 -10e-4,-10e-4 c -0.75783,-0.35473 -1.56735,-0.50862 -2.40761,-0.49093 -0.50605,-0.64399 -1.12833,-1.15945 -1.87741,-1.51412 a 0.78249737,0.80344602 89.565383 0 0 -10e-4,-0.001 c -0.007,-0.003 -0.0131,-0.006 -0.0202,-0.009 -0.004,-0.002 -0.008,-0.004 -0.0124,-0.006 a 0.78249737,0.80344602 89.565383 0 0 -0.004,-0.002 l -5.34438,-2.50113 c -0.007,-0.003 -0.0147,-0.007 -0.0217,-0.0103 v -5.3e-4 a 0.78249737,0.80344602 89.565383 0 0 -10e-4,-5.3e-4 c -0.7959,-0.37254 -1.64852,-0.52509 -2.53422,-0.48834 z m -150.79337,1.20251 a 17.669232,8.5357789 63.357049 0 0 -3.15484,7.4781 l -5.38676,2.52129 a 17.669232,8.5357789 63.357049 0 1 3.1569,-7.47913 17.669232,8.5357789 63.357049 0 1 0.0164,-0.008 17.669232,8.5357789 63.357049 0 1 0.0185,-0.009 z m 152.99789,0 5.35006,2.50373 a 8.5357789,17.669232 26.642951 0 1 0.0181,0.009 8.5357789,17.669232 26.642951 0 1 0.0171,0.008 8.5357789,17.669232 26.642951 0 1 3.1564,7.47913 l -5.38675,-2.52129 a 8.5357789,17.669232 26.642951 0 0 -3.15485,-7.4781 z m -150.03168,2.54713 a 14.446705,6.9790174 63.357049 0 1 11.19725,10.32702 14.446705,6.9790174 63.357049 0 1 0.0729,15.91221 14.446705,6.9790174 63.357049 0 1 -12.71807,-9.99371 14.446705,6.9790174 63.357049 0 1 -0.0863,-15.906 v 0 a 14.446705,6.9790174 63.357049 0 1 0.0124,-0.006 14.446705,6.9790174 63.357049 0 1 1.52136,-0.33332 z m 146.9683,0 a 6.9790174,14.446705 26.642951 0 1 1.61851,0.33332 6.9790174,14.446705 26.642951 0 1 0.0129,0.006 6.9790174,14.446705 26.642951 0 1 -0.0858,15.906 6.9790174,14.446705 26.642951 0 1 -12.71861,9.99371 6.9790174,14.446705 26.642951 0 1 0.0734,-15.91221 6.9790174,14.446705 26.642951 0 1 11.09958,-10.32702 z m -159.62591,1.98903 a 17.669232,8.5357789 63.357049 0 0 -3.15484,7.4781 l -5.38676,2.52129 a 17.669232,8.5357789 63.357049 0 1 3.1564,-7.47913 17.669232,8.5357789 63.357049 0 1 0.0164,-0.008 17.669232,8.5357789 63.357049 0 1 0.018,-0.009 z m 172.38069,0 5.35006,2.50372 a 8.5357789,17.669232 26.642951 0 1 0.0186,0.009 8.5357789,17.669232 26.642951 0 1 0.0165,0.008 8.5357789,17.669232 26.642951 0 1 3.15691,7.47913 l -5.38675,-2.52129 a 8.5357789,17.669232 26.642951 0 0 -3.15537,-7.4781 z m -171.97349,3.62924 c -0.0457,0.50589 -0.0675,1.02854 -0.0646,1.56527 0.0201,3.67354 1.14406,8.12367 3.34552,12.58218 2.2048,4.46528 5.07776,8.10351 8.01606,10.41229 0.42468,0.33369 0.85341,0.6403 1.28365,0.918803 a 14.446705,6.9790174 63.357049 0 1 -11.47011,-10.315133 14.446705,6.9790174 63.357049 0 1 -1.11053,-15.16341 z m 171.56679,0 a 6.9790174,14.446705 26.642951 0 1 -1.11104,15.16341 6.9790174,14.446705 26.642951 0 1 -11.46958,10.315133 c 0.43022,-0.278503 0.85895,-0.585113 1.28364,-0.918803 2.93831,-2.30878 5.81073,-5.94701 8.01553,-10.41229 2.20148,-4.45851 3.32553,-8.90864 3.34553,-12.58218 0.003,-0.53673 -0.0184,-1.05938 -0.0641,-1.56527 z m -154.71458,0.29817 a 6.9604167,3.3624871 63.357049 0 0 -0.74002,0.16071 6.9604167,3.3624871 63.357049 0 0 -0.0108,0.005 6.9604167,3.3624871 63.357049 0 0 0.046,7.66103 6.9604167,3.3624871 63.357049 0 0 6.1278,4.81521 6.9604167,3.3624871 63.357049 0 0 -0.0351,-7.66671 6.9604167,3.3624871 63.357049 0 0 -5.38779,-4.97541 z m 137.86187,0 a 3.3624871,6.9604167 26.642951 0 0 -5.38779,4.97541 3.3624871,6.9604167 26.642951 0 0 -0.0351,7.66671 3.3624871,6.9604167 26.642951 0 0 6.12779,-4.81521 3.3624871,6.9604167 26.642951 0 0 0.046,-7.66103 3.3624871,6.9604167 26.642951 0 0 -0.0108,-0.005 3.3624871,6.9604167 26.642951 0 0 -0.74001,-0.16071 z m -164.81267,0.60875 a 17.669232,8.5357789 63.357049 0 0 -3.15487,7.47809 l -5.38673,2.5213 a 17.669232,8.5357789 63.357049 0 1 3.1564,-7.47913 17.669232,8.5357789 63.357049 0 1 0.0169,-0.008 17.669232,8.5357789 63.357049 0 1 0.018,-0.009 z m 191.76348,0 5.35006,2.50372 a 8.5357789,17.669232 26.642951 0 1 0.0186,0.009 8.5357789,17.669232 26.642951 0 1 0.0165,0.008 8.5357789,17.669232 26.642951 0 1 3.15692,7.47913 l -5.38675,-2.5213 a 8.5357789,17.669232 26.642951 0 0 -3.15537,-7.47809 z m -175.38773,0.42891 a 17.669232,8.5357789 63.357049 0 0 0.39325,2.30425 l -5.38676,2.5213 a 17.669232,8.5357789 63.357049 0 1 -0.39325,-2.30426 z m 159.01198,0 5.38675,2.52129 a 8.5357789,17.669232 26.642951 0 1 -0.39274,2.30426 l -5.38675,-2.5213 a 8.5357789,17.669232 26.642951 0 0 0.39274,-2.30425 z m -174.98104,3.20032 c -0.0457,0.50591 -0.067,1.02853 -0.0641,1.56528 0.0199,3.67354 1.14406,8.12367 3.34553,12.58218 2.20482,4.46527 5.07772,8.103509 8.01605,10.412285 0.42469,0.333692 0.85289,0.640313 1.28313,0.918805 a 14.446705,6.9790174 63.357049 0 1 -11.46959,-10.31513 14.446705,6.9790174 63.357049 0 1 -1.11103,-15.16342 z m 190.95009,0 a 6.9790174,14.446705 26.642951 0 1 -1.11104,15.16342 6.9790174,14.446705 26.642951 0 1 -11.46959,10.31513 c 0.43024,-0.278492 0.85898,-0.585113 1.28365,-0.918805 2.93832,-2.308776 5.81071,-5.947015 8.01553,-10.412285 2.20147,-4.45851 3.32615,-8.90864 3.34605,-12.58218 0.003,-0.53675 -0.0189,-1.05937 -0.0646,-1.56528 z m -184.67243,1.33584 a 17.669232,8.5357789 63.357049 0 0 0.39325,2.30425 l -5.38676,2.52129 a 17.669232,8.5357789 63.357049 0 1 -0.39325,-2.30425 z m 178.39478,0 5.38675,2.52129 a 8.5357789,17.669232 26.642951 0 1 -0.39274,2.30425 l -5.38675,-2.52129 a 8.5357789,17.669232 26.642951 0 0 0.39274,-2.30425 z m -167.26215,1.44435 a 17.669232,8.5357789 63.357049 0 0 1.67328,3.97082 17.669232,8.5357789 63.357049 0 0 15.52311,12.23801 l -5.33612,2.497526 a 17.669232,8.5357789 63.357049 0 1 -0.018,0.0088 17.669232,8.5357789 63.357049 0 1 -15.55562,-12.222506 17.669232,8.5357789 63.357049 0 1 -1.67331,-3.97133 z m 156.13001,0 5.38624,2.5213 a 8.5357789,17.669232 26.642951 0 1 -1.67329,3.97133 8.5357789,17.669232 26.642951 0 1 -15.55512,12.222513 8.5357789,17.669232 26.642951 0 1 -0.0186,-0.0088 l -5.34334,-2.501143 a 8.5357789,17.669232 26.642951 0 0 15.53032,-12.2344 8.5357789,17.669232 26.642951 0 0 1.6738,-3.97081 z m -176.95406,3.09181 a 17.669232,8.5357789 63.357049 0 0 0.39274,2.30425 l -5.38623,2.52129 a 17.669232,8.5357789 63.357049 0 1 -0.39325,-2.30425 z m 197.77811,0 5.38675,2.52129 a 8.5357789,17.669232 26.642951 0 1 -0.39325,2.30425 l -5.38675,-2.52129 a 8.5357789,17.669232 26.642951 0 0 0.39325,-2.30425 z m -186.64545,1.44435 a 17.669232,8.5357789 63.357049 0 0 1.67328,3.97082 17.669232,8.5357789 63.357049 0 0 15.53032,12.234395 l -5.34334,2.501138 a 17.669232,8.5357789 63.357049 0 1 -0.018,0.0088 17.669232,8.5357789 63.357049 0 1 -15.55562,-12.222503 17.669232,8.5357789 63.357049 0 1 -1.6733,-3.97134 z m 175.5128,0 5.38675,2.5213 a 8.5357789,17.669232 26.642951 0 1 -1.6738,3.97133 8.5357789,17.669232 26.642951 0 1 -15.55512,12.22251 8.5357789,17.669232 26.642951 0 1 -0.0186,-0.0088 l -5.34334,-2.501138 a 8.5357789,17.669232 26.642951 0 0 15.53031,-12.234392 8.5357789,17.669232 26.642951 0 0 1.6738,-3.97082 z m -185.2042,4.53616 a 17.669232,8.5357789 63.357049 0 0 1.67328,3.97082 17.669232,8.5357789 63.357049 0 0 15.53033,12.234392 l -5.34334,2.50114 a 17.669232,8.5357789 63.357049 0 1 -0.018,0.0088 17.669232,8.5357789 63.357049 0 1 -15.55562,-12.222502 17.669232,8.5357789 63.357049 0 1 -1.6733,-3.97134 z m 194.8956,0 5.38675,2.52129 a 8.5357789,17.669232 26.642951 0 1 -1.6738,3.97134 8.5357789,17.669232 26.642951 0 1 -15.55512,12.222506 8.5357789,17.669232 26.642951 0 1 -0.0186,-0.0088 l -5.34335,-2.50114 a 8.5357789,17.669232 26.642951 0 0 15.53032,-12.234396 8.5357789,17.669232 26.642951 0 0 1.6738,-3.97082 z" />
      <g
         aria-label="                                                     RESILIENCE"
         id="text863"
         style="font-style:normal;font-variant:normal;font-weight:normal;font-stretch:normal;font-size:16.9333px;line-height:1.25;font-family:'Josefin Sans', '@wght=700', '@wght=700', '@wght=700', '@wght=400', '@wght=217', '@wght=400';-inkscape-font-specification:'Josefin Sans, @wght=700, @wght=700, @wght=700, @wght=400, @wght=217, @wght=400';font-variant-ligatures:normal;font-variant-caps:normal;font-variant-numeric:normal;font-variant-east-asian:normal;fill:#1a1f2c;fill-opacity:1;stroke:none;stroke-width:0.479156">
        <path
           d="m -604.57947,-115.95118 q 0.90558,-0.21749 1.72229,-0.15241 0.82922,0.0447 1.50371,0.3877 0.687,0.32262 1.16592,0.93902 0.49538,0.61245 0.70891,1.50157 0.17004,0.708 0.11812,1.43447 -0.0355,0.72253 -0.3785,1.39701 -0.33053,0.65407 -1.02135,1.18569 -0.67831,0.51121 -1.8144,0.78405 l -1.76177,0.42311 1.05185,4.37973 -1.59712,0.38356 -2.85897,-11.90427 z m 1.60006,5.93729 q 0.708,-0.17003 1.11762,-0.4948 0.42608,-0.32872 0.61044,-0.7213 0.1804,-0.40903 0.20471,-0.81541 0.0243,-0.40638 -0.0627,-0.76861 -0.087,-0.36223 -0.30967,-0.7093 -0.2062,-0.35101 -0.5652,-0.61309 -0.34648,-0.2825 -0.84244,-0.38978 -0.4795,-0.11123 -1.10518,0.039 l -1.84409,0.44288 1.06767,4.44558 z m 2.18079,0.45148 4.31402,4.25803 -1.84409,0.44289 -4.36802,-4.19282 z"
           style="font-style:normal;font-variant:normal;font-weight:normal;font-stretch:normal;font-size:16.9333px;font-family:'Josefin Sans', '@wght=700', '@wght=700', '@wght=700', '@wght=400', '@wght=217', '@wght=400';-inkscape-font-specification:'Josefin Sans, @wght=700, @wght=700, @wght=700, @wght=400, @wght=217, @wght=400';font-variant-ligatures:normal;font-variant-caps:normal;font-variant-numeric:normal;font-variant-east-asian:normal;stroke-width:0.479156;fill:#1a1f2c;fill-opacity:1"
           id="path881" />
        <path
           d="m -596.06256,-117.83171 7.8464,-1.33197 0.26356,1.55259 -6.22704,1.05707 0.62348,3.67279 5.55926,-0.94372 0.26639,1.56928 -5.55926,0.94372 0.63198,3.72286 6.46076,-1.09675 0.26356,1.55259 -8.08012,1.37164 z"
           style="font-style:normal;font-variant:normal;font-weight:normal;font-stretch:normal;font-size:16.9333px;font-family:'Josefin Sans', '@wght=700', '@wght=700', '@wght=700', '@wght=400', '@wght=217', '@wght=400';-inkscape-font-specification:'Josefin Sans, @wght=700, @wght=700, @wght=700, @wght=400, @wght=217, @wght=400';font-variant-ligatures:normal;font-variant-caps:normal;font-variant-numeric:normal;font-variant-east-asian:normal;stroke-width:0.479156;fill:#1a1f2c;fill-opacity:1"
           id="path883" />
        <path
           d="m -577.92035,-118.18442 q -0.65826,-0.25049 -1.42497,-0.40374 -0.7667,-0.15325 -1.47354,-0.0746 -0.97611,0.10857 -1.5146,0.62849 -0.52166,0.51804 -0.43743,1.27537 0.0637,0.5722 0.47883,0.93493 0.43013,0.34402 1.05099,0.5646 0.63768,0.21871 1.33894,0.39628 0.57784,0.14018 1.16504,0.3645 0.58532,0.2075 1.06782,0.56274 0.49932,0.35336 0.81729,0.91431 0.33479,0.55909 0.43026,1.41739 0.10857,0.97611 -0.2915,1.82139 -0.38324,0.8434 -1.22467,1.39701 -0.84142,0.55361 -2.0868,0.69214 -0.79099,0.088 -1.55021,0.002 -0.74426,-0.10463 -1.40064,-0.3383 -0.65639,-0.23366 -1.18001,-0.49914 l 0.5814,-1.35954 q 0.43573,0.24118 0.98739,0.45242 0.5498,0.19441 1.13885,0.28223 0.58905,0.0878 1.12759,0.0279 0.58904,-0.0655 1.12195,-0.32924 0.53291,-0.26373 0.85449,-0.74248 0.32157,-0.47875 0.24108,-1.20242 -0.0674,-0.60587 -0.45078,-0.98916 -0.36656,-0.38517 -0.93693,-0.61137 -0.55541,-0.2449 -1.20431,-0.41125 -0.6115,-0.13644 -1.23048,-0.34019 -0.60216,-0.20563 -1.14822,-0.51972 -0.53112,-0.33279 -0.91265,-0.85259 -0.36471,-0.52168 -0.45269,-1.31267 -0.1067,-0.95928 0.26907,-1.71666 0.39073,-0.77609 1.15362,-1.26985 0.76102,-0.51059 1.8007,-0.66031 1.17807,-0.13104 2.10186,0.0559 0.94061,0.18501 1.67555,0.51217 z"
           style="font-style:normal;font-variant:normal;font-weight:normal;font-stretch:normal;font-size:16.9333px;font-family:'Josefin Sans', '@wght=700', '@wght=700', '@wght=700', '@wght=400', '@wght=217', '@wght=400';-inkscape-font-specification:'Josefin Sans, @wght=700, @wght=700, @wght=700, @wght=400, @wght=217, @wght=400';font-variant-ligatures:normal;font-variant-caps:normal;font-variant-numeric:normal;font-variant-east-asian:normal;stroke-width:0.479156;fill:#1a1f2c;fill-opacity:1"
           id="path885" />
        <path
           d="m -574.17693,-120.67325 1.63827,-0.11818 0.88082,12.21105 -1.63827,0.11818 z"
           style="font-style:normal;font-variant:normal;font-weight:normal;font-stretch:normal;font-size:16.9333px;font-family:'Josefin Sans', '@wght=700', '@wght=700', '@wght=700', '@wght=400', '@wght=217', '@wght=400';-inkscape-font-specification:'Josefin Sans, @wght=700, @wght=700, @wght=700, @wght=400, @wght=217, @wght=400';font-variant-ligatures:normal;font-variant-caps:normal;font-variant-numeric:normal;font-variant-east-asian:normal;stroke-width:0.479156;fill:#1a1f2c;fill-opacity:1"
           id="path887" />
        <path
           d="m -568.55454,-121.05191 1.64162,-0.0545 0.35415,10.66209 6.2111,-0.2063 0.0523,1.57393 -7.85272,0.26083 z"
           style="font-style:normal;font-variant:normal;font-weight:normal;font-stretch:normal;font-size:16.9333px;font-family:'Josefin Sans', '@wght=700', '@wght=700', '@wght=700', '@wght=400', '@wght=217', '@wght=400';-inkscape-font-specification:'Josefin Sans, @wght=700, @wght=700, @wght=700, @wght=400, @wght=217, @wght=400';font-variant-ligatures:normal;font-variant-caps:normal;font-variant-numeric:normal;font-variant-east-asian:normal;stroke-width:0.479156;fill:#1a1f2c;fill-opacity:1"
           id="path889" />
        <path
           d="m -557.57588,-121.2894 1.64252,0.008 -0.0575,12.24264 -1.64252,-0.008 z"
           style="font-style:normal;font-variant:normal;font-weight:normal;font-stretch:normal;font-size:16.9333px;font-family:'Josefin Sans', '@wght=700', '@wght=700', '@wght=700', '@wght=400', '@wght=217', '@wght=400';-inkscape-font-specification:'Josefin Sans, @wght=700, @wght=700, @wght=700, @wght=400, @wght=217, @wght=400';font-variant-ligatures:normal;font-variant-caps:normal;font-variant-numeric:normal;font-variant-east-asian:normal;stroke-width:0.479156;fill:#1a1f2c;fill-opacity:1"
           id="path891" />
        <path
           d="m -551.93319,-121.24305 7.95091,0.35101 -0.0695,1.57326 -6.30998,-0.27856 -0.1643,3.7217 5.6333,0.24869 -0.0702,1.59018 -5.6333,-0.24869 -0.16654,3.77245 6.54681,0.28902 -0.0694,1.57326 -8.18774,-0.36145 z"
           style="font-style:normal;font-variant:normal;font-weight:normal;font-stretch:normal;font-size:16.9333px;font-family:'Josefin Sans', '@wght=700', '@wght=700', '@wght=700', '@wght=400', '@wght=217', '@wght=400';-inkscape-font-specification:'Josefin Sans, @wght=700, @wght=700, @wght=700, @wght=400, @wght=217, @wght=400';font-variant-ligatures:normal;font-variant-caps:normal;font-variant-numeric:normal;font-variant-east-asian:normal;stroke-width:0.479156;fill:#1a1f2c;fill-opacity:1"
           id="path893" />
        <path
           d="m -530.94126,-106.9364 -8.37285,-10.56778 0.45855,0.16907 -0.94889,9.0436 -1.63291,-0.17748 1.36314,-12.54144 0.0842,0.009 8.25135,10.58864 -0.36121,-0.12442 0.95804,-9.12778 1.63291,0.17749 -1.36496,12.55828 z"
           style="font-style:normal;font-variant:normal;font-weight:normal;font-stretch:normal;font-size:16.9333px;font-family:'Josefin Sans', '@wght=700', '@wght=700', '@wght=700', '@wght=400', '@wght=217', '@wght=400';-inkscape-font-specification:'Josefin Sans, @wght=700, @wght=700, @wght=700, @wght=400, @wght=217, @wght=400';font-variant-ligatures:normal;font-variant-caps:normal;font-variant-numeric:normal;font-variant-east-asian:normal;stroke-width:0.479156;fill:#1a1f2c;fill-opacity:1"
           id="path895" />
        <path
           d="m -518.33946,-106.07073 q -0.33623,0.14541 -0.89813,0.30143 -0.56189,0.15602 -1.29191,0.19542 -0.71336,0.0424 -1.54637,-0.10899 -1.37977,-0.26803 -2.42484,-0.95712 -1.02841,-0.68606 -1.67668,-1.66444 -0.63161,-0.97535 -0.85126,-2.13398 -0.21662,-1.1753 0.007,-2.40816 0.24531,-1.34948 0.88442,-2.40363 0.64213,-1.07082 1.59325,-1.75847 0.97081,-0.70127 2.13853,-0.9709 1.18437,-0.26661 2.48387,-0.0304 1.08292,0.19685 1.9114,0.65725 0.83151,0.44373 1.39495,0.942 l -0.92838,1.41464 q -0.43621,-0.44072 -1.09809,-0.87084 -0.66188,-0.43011 -1.51155,-0.58456 -0.88299,-0.16052 -1.72963,0.047 -0.84663,0.20752 -1.56148,0.73159 -0.71485,0.52406 -1.21615,1.29348 -0.48463,0.77244 -0.66331,1.75539 -0.17566,0.9663 -0.0302,1.87049 0.16512,0.89055 0.61649,1.62661 0.47105,0.72243 1.2238,1.2207 0.75276,0.49826 1.76904,0.683 0.91631,0.16657 1.68419,0.0136 0.76787,-0.153 1.29796,-0.41806 z"
           style="font-style:normal;font-variant:normal;font-weight:normal;font-stretch:normal;font-size:16.9333px;font-family:'Josefin Sans', '@wght=700', '@wght=700', '@wght=700', '@wght=400', '@wght=217', '@wght=400';-inkscape-font-specification:'Josefin Sans, @wght=700, @wght=700, @wght=700, @wght=400, @wght=217, @wght=400';font-variant-ligatures:normal;font-variant-caps:normal;font-variant-numeric:normal;font-variant-east-asian:normal;stroke-width:0.479156;fill:#1a1f2c;fill-opacity:1"
           id="path897" />
        <path
           d="m -512.78,-116.41698 7.70942,1.97611 -0.39102,1.52548 -6.11832,-1.56827 -0.92499,3.60866 5.4622,1.40009 -0.39522,1.54189 -5.4622,-1.4001 -0.9376,3.65788 6.34796,1.62713 -0.39101,1.52548 -7.93906,-2.03497 z"
           style="font-style:normal;font-variant:normal;font-weight:normal;font-stretch:normal;font-size:16.9333px;font-family:'Josefin Sans', '@wght=700', '@wght=700', '@wght=700', '@wght=400', '@wght=217', '@wght=400';-inkscape-font-specification:'Josefin Sans, @wght=700, @wght=700, @wght=700, @wght=400, @wght=217, @wght=400';font-variant-ligatures:normal;font-variant-caps:normal;font-variant-numeric:normal;font-variant-east-asian:normal;stroke-width:0.479156;fill:#1a1f2c;fill-opacity:1"
           id="path899" />
      </g>
    </g>
  </g>
</svg>
